<svg version="1.1" xmlns="http://www.w3.org/2000/svg" xmlns:xlink="http://www.w3.org/1999/xlink" width="48" height="48"><defs><linearGradient x1="14.22989" y1="14.22989" x2="54.98331" y2="54.98331" gradientUnits="userSpaceOnUse" id="color-1"><stop offset="0" stop-color="#000000" stop-opacity="0.3"></stop><stop offset="1" stop-color="#000000" stop-opacity="0"></stop></linearGradient><filter id="dropshadow-base"><feColorMatrix type="matrix" values="0 0 0 0 0  0 0 0 0 0  0 0 0 0 0  0 0 0 .8 0"></feColorMatrix> <feOffset dx="0" dy="1"></feOffset> <feGaussianBlur stdDeviation="1"></feGaussianBlur> <feComposite in="SourceGraphic"></feComposite></filter><filter id="dropshadow-banner" x="-10%" y="-10%" width="120%" height="130%"><feColorMatrix type="matrix" values="0 0 0 0 0  0 0 0 0 0  0 0 0 0 0  0 0 0 .4 0"></feColorMatrix> <feOffset dx="0" dy="1"></feOffset> <feGaussianBlur stdDeviation="0.5"></feGaussianBlur> <feComposite in="SourceGraphic"></feComposite></filter></defs><g fill="none" fill-rule="nonzero" stroke="none" stroke-width="none" stroke-linecap="butt" stroke-linejoin="miter" stroke-miterlimit="10" stroke-dasharray="" stroke-dashoffset="0" font-family="none" font-weight="none" font-size="none" text-anchor="none" style="mix-blend-mode: normal"><path d="M7,43c-1.10457,0 -2,-0.89543 -2,-2v-34c0,-1.10457 0.89543,-2 2,-2h34c1.10457,0 2,0.89543 2,2v34c0,1.10457 -0.89543,2 -2,2z" id="base 1 5 1" fill="#00bcd4" stroke-width="1"></path><path d="M15.09272,32.90728c-0.53186,-0.53186 -0.86283,-1.26462 -0.86283,-2.0682v-2.93103h2.93103v-10.74712c0,-1.60715 1.32388,-2.93103 2.93103,-2.93103h10.74712c0.80358,0 1.53634,0.33097 2.0682,0.86283l0,0l0,0l10.09272,10.09272v15.81455c0,1.10457 -0.89543,2 -2,2h-15.81455z" fill="url(#color-1)" stroke-width="1"></path><path d="M20.09196,14.22989c-1.60715,0 -2.93103,1.32388 -2.93103,2.93103v10.74712h-2.93103v2.93103c0,1.60715 1.32388,2.93103 2.93103,2.93103h8.7931h0.97701c1.60715,0 2.93103,-1.32388 2.93103,-2.93103v-10.74712h3.90804v-2.93103c0,-1.60715 -1.32388,-2.93103 -2.93103,-2.93103zM20.09196,16.18391h7.99928c-0.11095,0.30765 -0.18319,0.63326 -0.18319,0.97701v13.67815c0,0.5473 -0.41853,0.96789 -0.96365,0.9751v-0.01145c-0.55053,0.00744 -0.98289,-0.41351 -0.99037,-0.96365l-0.02672,-2.92722l-0.9503,0.00954v-0.01336h-5.86207v-10.74712c0,-0.55204 0.42497,-0.97701 0.97701,-0.97701zM30.83908,16.18391c0.55204,0 0.97701,0.42497 0.97701,0.97701v0.97701h-1.95402v-0.97701c0,-0.55204 0.42497,-0.97701 0.97701,-0.97701zM16.18391,29.86207h7.80655l0.00954,1.00182v0.00191c0.00455,0.33467 0.07936,0.65103 0.18891,0.9503h-7.02799c-0.55204,0 -0.97701,-0.42497 -0.97701,-0.97701z" fill="none" stroke-width="0"></path><path d="M30.83908,14.22989c1.60715,0 2.93103,1.32388 2.93103,2.93103v2.93103h-3.90804v10.74712c0,1.60715 -1.32388,2.93103 -2.93103,2.93103h-9.77011c-1.60715,0 -2.93103,-1.32388 -2.93103,-2.93103v-2.93103h2.93103v-10.74712c0,-1.60715 1.32388,-2.93103 2.93103,-2.93103zM19.11495,17.16092v10.74712h5.86207v0.01336l0.9503,-0.00954l0.02672,2.92722c0.00748,0.55014 0.43984,0.97109 0.99037,0.96365v0.01145c0.54512,-0.00721 0.96365,-0.4278 0.96365,-0.9751v-13.67815c0,-0.34375 0.07224,-0.66936 0.18319,-0.97701h-7.99928c-0.55204,0 -0.97701,0.42497 -0.97701,0.97701zM29.86207,17.16092v0.97701h1.95402v-0.97701c0,-0.55204 -0.42497,-0.97701 -0.97701,-0.97701c-0.55204,0 -0.97701,0.42497 -0.97701,0.97701zM16.18391,30.83908c0,0.55204 0.42497,0.97701 0.97701,0.97701h7.02799c-0.10955,-0.29926 -0.18437,-0.61563 -0.18891,-0.9503v-0.00191l-0.00954,-1.00182h-7.80655z" fill="#ffffff" stroke-width="0"></path><path d="M2,24c0,-12.15026 9.84974,-22 22,-22c12.15026,0 22,9.84974 22,22c0,12.15026 -9.84974,22 -22,22c-12.15026,0 -22,-9.84974 -22,-22z" id="base 1 1 1" fill="none" stroke-width="1"></path><g fill="#000000" stroke-width="1" font-family="Roboto, sans-serif" font-weight="400" font-size="14" text-anchor="start"></g><rect x="2" y="2" width="44" height="22" fill="none" stroke-width="1"></rect><path d="M2,24v-22h44v22z" fill="none" stroke-width="1"></path><path d="M2,24v-22h44v22z" fill="none" stroke-width="1"></path><path d="M2,24v-22h44v22z" fill="none" stroke-width="1"></path><path d="M2,24v-22h44v22z" fill="none" stroke-width="1"></path></g></svg>